<svg width="20" height="20" viewBox="0 0 20 20" fill="none" xmlns="http://www.w3.org/2000/svg">
<path d="M0 4C0 1.79086 1.79086 0 4 0H16C18.2091 0 20 1.79086 20 4V16C20 18.2091 18.2091 20 16 20H4C1.79086 20 0 18.2091 0 16V4Z" fill="white"/>
<path d="M4 1.5H16V-1.5H4V1.5ZM18.5 4V16H21.5V4H18.5ZM16 18.5H4V21.5H16V18.5ZM1.5 16V4H-1.5V16H1.5ZM4 18.5C2.61929 18.5 1.5 17.3807 1.5 16H-1.5C-1.5 19.0376 0.962434 21.5 4 21.5V18.5ZM18.5 16C18.5 17.3807 17.3807 18.5 16 18.5V21.5C19.0376 21.5 21.5 19.0376 21.5 16H18.5ZM16 1.5C17.3807 1.5 18.5 2.61929 18.5 4H21.5C21.5 0.962434 19.0376 -1.5 16 -1.5V1.5ZM4 -1.5C0.962434 -1.5 -1.5 0.962434 -1.5 4H1.5C1.5 2.61929 2.61929 1.5 4 1.5V-1.5Z" fill="#4277FF"/>
</svg>
