<svg width="18" height="18" viewBox="0 0 18 18" fill="none" xmlns="http://www.w3.org/2000/svg">
<path d="M7.87664 3.59746L8.04098 3.57227C8.35859 3.52358 8.67947 3.49937 9.00079 3.49983M7.87664 3.59746L9.00007 3.99983M7.87664 3.59746L7.72365 3.62091L7.61674 3.6373V3.77162V4.03207C7.64453 4.04508 7.67303 4.05658 7.7021 4.0665C7.72993 4.07599 7.75828 4.08404 7.78705 4.09061C7.80243 4.09412 7.81789 4.09719 7.83341 4.09983H8.11674L8.11107 4.0665L8.03294 3.6069C7.98824 3.6145 7.94248 3.61322 7.89827 3.60313C7.89099 3.60147 7.88378 3.59958 7.87664 3.59746ZM9.00079 3.49983L9.00007 3.99983M9.00079 3.49983C9.00055 3.49983 9.00031 3.49983 9.00007 3.49983V3.99983M9.00079 3.49983C11.9064 3.50017 14.5422 5.5846 16.0444 8.78752L16.1442 9.00036L16.044 9.213C15.8135 9.70203 15.5532 10.1764 15.2645 10.6335L15.2617 10.6378L15.2617 10.6378C15.2266 10.6922 15.208 10.7557 15.2084 10.8204M9.00007 3.99983C11.6501 3.99983 14.1417 5.90816 15.5917 8.99983C15.37 9.47032 15.1195 9.92674 14.8417 10.3665C14.7536 10.503 14.7072 10.6623 14.7084 10.8248M15.2084 10.8204C15.2084 10.8202 15.2084 10.82 15.2084 10.8197L14.7084 10.8248M15.2084 10.8204C15.2084 10.8207 15.2084 10.8209 15.2084 10.8211L14.7084 10.8248M15.2084 10.8204C15.2093 10.8929 15.2338 10.9632 15.2782 11.0205C15.3228 11.078 15.3849 11.1193 15.4552 11.1382L15.3254 11.6211M14.7084 10.8248C14.7103 11.0067 14.7716 11.183 14.883 11.3267C14.9944 11.4705 15.1497 11.5739 15.3254 11.6211M15.3254 11.6211L15.4552 11.1382C15.5254 11.1571 15.5999 11.1525 15.6673 11.1251C15.7347 11.0977 15.7913 11.049 15.8284 10.9864L15.8324 10.9796L15.8366 10.973C16.2101 10.3862 16.5345 9.76951 16.8066 9.12929L16.8074 9.12733C16.8253 9.08574 16.8345 9.04094 16.8345 8.99566C16.8345 8.95038 16.8253 8.90558 16.8074 8.86399L7.83341 2.43316C8.21848 2.36466 8.60896 2.33119 9.00007 2.33316C12.4167 2.33316 15.5834 4.75816 17.2667 8.6665C17.3114 8.77048 17.3345 8.88248 17.3345 8.99566C17.3345 9.10885 17.3114 9.22085 17.2667 9.32483C16.9839 9.99037 16.6467 10.6314 16.2584 11.2415C16.1656 11.3979 16.0242 11.5197 15.8557 11.5882C15.6873 11.6568 15.501 11.6683 15.3254 11.6211ZM7.11797 8.99983H6.83341C6.83341 9.00079 6.83341 9.00176 6.83341 9.00273C6.83417 9.57632 7.06236 10.1262 7.46801 10.5319C7.87367 10.9376 8.42362 11.1657 8.99723 11.1665C9.19131 11.1685 9.38465 11.1423 9.57123 11.0888L10.3872 10.8548L9.78696 10.2546L7.74529 8.21294L7.14509 7.61273L7.12045 9.00231L7.11797 8.99983ZM7.11797 8.99983L7.03819 8.92005L7.39174 8.56649L7.11797 8.99983ZM3.83849 5.02672L4.20624 4.67273L3.84472 4.31237L1.26196 1.73794C1.26188 1.73787 1.26181 1.73779 1.26173 1.73771C1.19872 1.67459 1.16333 1.58903 1.16333 1.49983C1.16333 1.41052 1.19881 1.32487 1.26196 1.26172C1.29323 1.23045 1.33035 1.20564 1.37121 1.18872C1.41206 1.1718 1.45585 1.16309 1.50007 1.16309C1.54429 1.16309 1.58808 1.1718 1.62894 1.18872C1.66979 1.20564 1.70692 1.23045 1.73819 1.26172L16.7382 16.2617L16.7396 16.2632C16.7709 16.2942 16.7957 16.331 16.8126 16.3716C16.8295 16.4123 16.8382 16.4558 16.8382 16.4998C16.8382 16.5438 16.8295 16.5874 16.8126 16.628C16.7957 16.6686 16.7709 16.7055 16.7396 16.7365L16.7367 16.7394C16.7057 16.7706 16.6689 16.7954 16.6283 16.8124C16.5876 16.8293 16.5441 16.838 16.5001 16.838C16.4561 16.838 16.4125 16.8293 16.3719 16.8124C16.3313 16.7954 16.2944 16.7706 16.2634 16.7394L16.2625 16.7385L13.5625 14.0302L13.2735 13.7403L12.9323 13.9663C11.7651 14.7395 10.3983 15.1565 8.99841 15.1665C5.83605 15.1657 2.82051 12.915 1.19263 9.13537L1.19166 9.13316C1.17331 9.09111 1.16384 9.04572 1.16384 8.99983C1.16384 8.95394 1.17331 8.90855 1.19166 8.86649L1.19168 8.8665L1.19336 8.86256C1.80858 7.41932 2.70818 6.11476 3.83849 5.02672ZM9.00007 14.4998V14.4999L9.00576 14.4998C10.1459 14.4868 11.2627 14.1757 12.2454 13.5974L12.8057 13.2676L12.343 12.8107L11.018 11.5024L10.7531 11.2407L10.4265 11.4197C9.889 11.7142 9.27052 11.8264 8.66383 11.7397C8.05713 11.6529 7.49493 11.3717 7.06156 10.9383C6.6282 10.505 6.34703 9.94277 6.26025 9.33607C6.17347 8.72938 6.28574 8.1109 6.58023 7.57342L6.7593 7.24659L6.49727 6.9816L5.02227 5.48993L4.67824 5.14201L4.32295 5.47844C3.32849 6.42011 2.52642 7.54598 1.96129 8.79351L1.86646 9.00285L1.96359 9.21114C3.45771 12.4153 6.0942 14.4998 9.00007 14.4998Z" fill="black" stroke="#535261"/>
</svg>
