<svg width="18" height="14" viewBox="0 0 18 14" fill="none" xmlns="http://www.w3.org/2000/svg">
<path d="M16.8073 6.86462L16.8082 6.86683C16.8266 6.90888 16.836 6.95427 16.836 7.00016C16.836 7.04605 16.8266 7.09144 16.8082 7.13349L16.8073 7.13571C15.1791 10.916 12.1628 13.1668 8.99981 13.1668C5.83684 13.1668 2.82053 10.916 1.19236 7.13571L1.19237 7.13571L1.1914 7.1335C1.17305 7.09144 1.16357 7.04605 1.16357 7.00016C1.16357 6.95428 1.17305 6.90888 1.1914 6.86683L1.19141 6.86683L1.19236 6.86462C2.82053 3.08437 5.83684 0.833496 8.99981 0.833496C12.1628 0.833496 15.1791 3.08437 16.8073 6.86462ZM1.96332 6.78885L1.86479 7.00016L1.96332 7.21147C3.45762 10.416 6.10258 12.5002 8.99981 12.5002C11.897 12.5002 14.542 10.416 16.0363 7.21147L16.1348 7.00016L16.0363 6.78885C14.542 3.58433 11.897 1.50016 8.99981 1.50016C6.10258 1.50016 3.45762 3.58433 1.96332 6.78885ZM7.4257 4.64433C7.89164 4.333 8.43943 4.16683 8.99981 4.16683C9.75126 4.16683 10.4719 4.46534 11.0033 4.99669C11.5346 5.52805 11.8331 6.24871 11.8331 7.00016C11.8331 7.56054 11.667 8.10834 11.3556 8.57428C11.0443 9.04022 10.6018 9.40337 10.0841 9.61782C9.56636 9.83227 8.99667 9.88838 8.44706 9.77905C7.89744 9.66973 7.39259 9.39988 6.99634 9.00363C6.60009 8.60738 6.33024 8.10253 6.22092 7.55292C6.11159 7.0033 6.1677 6.43362 6.38215 5.91589C6.5966 5.39817 6.95976 4.95566 7.4257 4.64433ZM7.79608 8.80168C8.15238 9.03976 8.57129 9.16683 8.99981 9.16683C9.57445 9.16683 10.1255 8.93856 10.5319 8.53223C10.9382 8.1259 11.1665 7.5748 11.1665 7.00016C11.1665 6.57164 11.0394 6.15273 10.8013 5.79643C10.5633 5.44012 10.2249 5.16241 9.82896 4.99842C9.43305 4.83443 8.99741 4.79153 8.57712 4.87513C8.15682 4.95873 7.77076 5.16508 7.46775 5.4681C7.16473 5.77111 6.95838 6.15717 6.87478 6.57747C6.79118 6.99776 6.83408 7.4334 6.99807 7.82931C7.16206 8.22522 7.43977 8.5636 7.79608 8.80168Z" fill="#535261" stroke="#535261"/>
</svg>
