<svg width="24" height="24" viewBox="0 0 24 24" fill="none" xmlns="http://www.w3.org/2000/svg">
<path d="M16.8884 0.333008H7.11171C2.86504 0.333008 0.333374 2.86467 0.333374 7.11134V16.8763C0.333374 21.1347 2.86504 23.6663 7.11171 23.6663H16.8767C21.1234 23.6663 23.655 21.1347 23.655 16.888V7.11134C23.6667 2.86467 21.135 0.333008 16.8884 0.333008ZM16.6667 12.8747H12.875V16.6663C12.875 17.1447 12.4784 17.5413 12 17.5413C11.5217 17.5413 11.125 17.1447 11.125 16.6663V12.8747H7.33337C6.85504 12.8747 6.45837 12.478 6.45837 11.9997C6.45837 11.5213 6.85504 11.1247 7.33337 11.1247H11.125V7.33301C11.125 6.85467 11.5217 6.45801 12 6.45801C12.4784 6.45801 12.875 6.85467 12.875 7.33301V11.1247H16.6667C17.145 11.1247 17.5417 11.5213 17.5417 11.9997C17.5417 12.478 17.145 12.8747 16.6667 12.8747Z" fill="#FF9138"/>
</svg>
