<svg width="16" height="15" viewBox="0 0 16 15" fill="none" xmlns="http://www.w3.org/2000/svg">
<ellipse cx="3.22131" cy="10.0817" rx="0.498165" ry="0.495793" fill="#4277FF"/>
<ellipse cx="4.88195" cy="10.0817" rx="0.498165" ry="0.495793" fill="#4277FF"/>
<ellipse cx="6.5426" cy="10.0817" rx="0.498165" ry="0.495793" fill="#4277FF"/>
<g clip-path="url(#clip0_233_8524)">
<path d="M9.63032 3.8252C9.96303 3.8252 10.2655 3.91953 10.5267 4.12707C11.0217 4.52599 11.0931 5.20252 10.6779 5.68229C10.5487 5.83323 10.3947 5.968 10.249 6.10277C10.0675 6.26988 9.93553 6.45047 9.94653 6.71461C9.95478 6.90598 9.79255 7.03266 9.60282 7.02727C9.4241 7.01919 9.30036 6.88172 9.29211 6.69035C9.27561 6.33996 9.39935 6.04347 9.64132 5.7928C9.8063 5.6203 9.98778 5.46666 10.15 5.29147C10.3727 5.05428 10.3232 4.74431 10.0373 4.57989C9.94928 4.52868 9.84205 4.49364 9.73756 4.48017C9.4076 4.43974 9.11063 4.53946 8.98415 4.95724C8.93191 5.13514 8.74768 5.22678 8.5772 5.17557C8.39847 5.12435 8.30498 4.95455 8.35447 4.76857C8.50296 4.19176 8.99515 3.82789 9.63032 3.8252Z" fill="#4277FF"/>
<path d="M9.63251 7.36051C9.81948 7.3659 9.95697 7.50876 9.95147 7.68665C9.94597 7.86993 9.79474 8.0047 9.60501 7.99661C9.42353 7.98853 9.28605 7.84298 9.2943 7.66509C9.2998 7.48719 9.44553 7.35512 9.63251 7.36051Z" fill="#4277FF"/>
</g>
<path d="M14.7707 5.7304C14.7707 7.04284 14.0594 8.22267 12.9268 9.04368C12.8876 9.07098 12.8661 9.11778 12.8641 9.16459L12.8151 10.4419C12.8092 10.6135 12.6192 10.713 12.4742 10.6213L11.3867 9.94074C11.3867 9.94074 11.3867 9.94074 11.3847 9.94074C11.322 9.89978 11.2456 9.88808 11.175 9.90954C10.5284 10.1104 9.82497 10.2216 9.08821 10.2216C9.07841 10.2216 9.06862 10.2216 9.05882 10.2216C9.07841 10.0928 9.08821 9.96219 9.08821 9.82958C9.08821 7.99841 7.21104 6.51436 4.89496 6.51436C4.41881 6.51436 3.96226 6.57676 3.53509 6.69182C3.44888 6.38175 3.40381 6.05802 3.40381 5.7265C3.40381 3.24398 5.94719 1.2334 9.08625 1.2334C12.2273 1.2373 14.7707 3.24983 14.7707 5.7304Z" stroke="#4277FF" stroke-width="1.10526" stroke-miterlimit="10"/>
<path d="M3.537 6.69531C1.88909 7.14189 0.703613 8.37828 0.703613 9.83308C0.703613 10.8003 1.22875 11.6721 2.06348 12.2785C2.09287 12.3 2.10855 12.3331 2.11051 12.3682L2.14578 13.3102C2.1497 13.4369 2.29078 13.5091 2.39855 13.4428L3.20193 12.9396C3.20781 12.9357 3.21564 12.9299 3.22152 12.926C3.25091 12.9026 3.2901 12.8948 3.32537 12.9065C3.81132 13.0625 4.34038 13.1483 4.89686 13.1483C7.04443 13.1483 8.81579 11.871 9.06072 10.2251" stroke="#4277FF" stroke-width="1.10526" stroke-miterlimit="10"/>
<defs>
<clipPath id="clip0_233_8524">
<rect width="2.60944" height="4.1751" fill="white" transform="translate(8.34033 3.82422)"/>
</clipPath>
</defs>
</svg>
